<?xml version="1.0" encoding="UTF-8" standalone="no"?>
<!-- Created with Inkscape (http://www.inkscape.org/) -->

<svg
   width="4in"
   height="4in"
   viewBox="0 0 101.6 101.6"
   version="1.1"
   id="svg5"
   inkscape:version="1.3.2 (091e20e, 2023-11-25, custom)"
   sodipodi:docname="black gear head.svg"
   xmlns:inkscape="http://www.inkscape.org/namespaces/inkscape"
   xmlns:sodipodi="http://sodipodi.sourceforge.net/DTD/sodipodi-0.dtd"
   xmlns="http://www.w3.org/2000/svg"
   xmlns:svg="http://www.w3.org/2000/svg">
  <sodipodi:namedview
     id="namedview7"
     pagecolor="#ffffff"
     bordercolor="#000000"
     borderopacity="0.25"
     inkscape:showpageshadow="2"
     inkscape:pageopacity="0.0"
     inkscape:pagecheckerboard="false"
     inkscape:deskcolor="#d1d1d1"
     inkscape:document-units="mm"
     showgrid="false"
     showguides="false"
     inkscape:zoom="1.2291667"
     inkscape:cx="34.576271"
     inkscape:cy="96.81356"
     inkscape:window-width="1920"
     inkscape:window-height="1130"
     inkscape:window-x="-6"
     inkscape:window-y="-6"
     inkscape:window-maximized="1"
     inkscape:current-layer="layer1" />
  <defs
     id="defs2">
    <inkscape:path-effect
       effect="powerclip"
       id="path-effect9832"
       is_visible="true"
       lpeversion="1"
       inverse="true"
       flatten="false"
       hide_clip="false"
       message="Use fill-rule evenodd on &lt;b&gt;fill and stroke&lt;/b&gt; dialog if no flatten result after convert clip to paths." />
    <inkscape:path-effect
       effect="powerclip"
       id="path-effect9804"
       is_visible="true"
       lpeversion="1"
       inverse="true"
       flatten="false"
       hide_clip="false"
       message="Use fill-rule evenodd on &lt;b&gt;fill and stroke&lt;/b&gt; dialog if no flatten result after convert clip to paths." />
    <clipPath
       id="clip0">
      <path
         d="M573.906 399.945 1603.4 17.2523 1986.09 1046.74 956.599 1429.44Z"
         fill-rule="evenodd"
         clip-rule="evenodd"
         id="path9717" />
    </clipPath>
    <clipPath
       id="clip1">
      <path
         d="M573.906 399.945 1603.4 17.2523 1986.09 1046.74 956.599 1429.44Z"
         fill-rule="evenodd"
         clip-rule="evenodd"
         id="path9720" />
    </clipPath>
    <clipPath
       id="clip2">
      <path
         d="M573.906 399.945 1603.4 17.2523 1986.09 1046.74 956.599 1429.44Z"
         fill-rule="evenodd"
         clip-rule="evenodd"
         id="path9723" />
    </clipPath>
    <clipPath
       clipPathUnits="userSpaceOnUse"
       id="clipPath9800">
      <path
         d="m 1016,715 c 0,-145.80299 118.2,-264 264,-264 145.8,0 264,118.19701 264,264 0,145.80299 -118.2,263.99999 -264,263.99999 -145.8,0 -264,-118.197 -264,-263.99999 z"
         fill="#ffffff"
         fill-rule="evenodd"
         id="path9802"
         style="display:none;stroke-width:0.999999" />
      <path
         id="lpe_path-effect9804"
         style="stroke-width:0.999999"
         class="powerclip"
         d="m 987,422 h 586 v 586 H 987 Z m 29,293 c 0,145.80299 118.2,263.99999 264,263.99999 145.8,0 264,-118.197 264,-263.99999 0,-145.80299 -118.2,-264 -264,-264 -145.8,0 -264,118.19701 -264,264 z" />
    </clipPath>
  </defs>
  <g
     inkscape:label="Layer 1"
     inkscape:groupmode="layer"
     id="layer1">
    <g
       id="g9826"
       clip-path="none"
       style="display:inline"
       transform="matrix(0.12519608,0,0,0.12537993,-109.52566,-39.849881)">
      <g
         id="g9734"
         style="display:inline">
        <g
           id="g9732">
          <g
             id="g9730">
            <path
               d="m 1280,866 c -78.65,0 -143,-64.35 -143,-143 0,-78.65 64.35,-143 143,-143 78.65,0 143,64.35 143,143 0,78.65 -64.35,143 -143,143 z m 321.75,-232.375 c -7.15,-26.217 -17.87,-51.242 -30.98,-73.883 l 29.79,-89.375 -67.93,-67.925 -89.37,29.791 C 1419.43,419.125 1394.4,408.4 1368.18,401.25 l -40.51,-83.417 h -95.34 l -41.71,83.417 c -26.21,7.15 -51.24,17.875 -73.88,30.983 l -89.37,-29.791 -67.928,67.925 29.791,89.375 C 976.125,583.575 965.4,608.6 958.25,634.817 l -83.417,40.516 v 95.334 l 83.417,41.708 c 7.15,26.217 17.875,51.242 30.983,73.883 l -29.791,89.375 67.928,67.927 89.37,-29.79 c 23.83,13.11 48.86,23.83 75.08,30.98 l 41.71,83.42 h 95.33 l 41.71,-83.42 c 26.21,-7.15 51.24,-17.87 73.88,-30.98 l 89.38,29.79 67.92,-67.927 -29.79,-89.375 c 13.11,-23.833 23.83,-48.858 30.98,-75.075 l 83.42,-41.708 v -95.333 z"
               fill="#1f498a"
               id="path9728" />
          </g>
        </g>
      </g>
      <g
         clip-path="url(#clip0)"
         id="g9742"
         style="display:inline">
        <g
           clip-path="url(#clip1)"
           id="g9740">
          <g
             clip-path="url(#clip2)"
             id="g9738">
            <path
               d="m 1327.83,852.031 c -70.77,26.31 -150.21,-10.073 -176.52,-80.85 -26.31,-70.778 10.07,-150.213 80.85,-176.523 70.78,-26.31 150.21,10.072 176.52,80.85 26.31,70.777 -10.07,150.213 -80.85,176.523 z m 211.82,-316.748 c -15.21,-21.201 -33.23,-40.133 -52.6,-56.123 l -3.09,-90.395 -83.85,-38.404 -70.46,56.707 c -25.84,-3.823 -51.94,-5.103 -77.93,-2.767 l -64.36,-61.514 -85.79,31.891 -9.63,89.02 c -21.2,15.204 -40.14,33.227 -56.13,52.597 l -90.391,3.088 -38.404,83.849 56.708,70.463 c -3.824,25.833 -5.104,51.94 -2.768,77.925 l -61.514,64.366 31.891,85.791 89.018,9.629 c 15.21,21.2 33.23,40.133 52.6,56.123 l 3.09,90.391 83.85,38.41 70.46,-56.71 c 25.83,3.82 51.94,5.1 77.92,2.77 l 65.44,61.11 85.79,-31.89 9.63,-89.018 c 21.2,-15.204 40.14,-33.227 56.13,-52.597 l 90.39,-3.089 38.4,-83.848 -56.7,-70.463 c 3.82,-25.833 5.1,-51.941 2.76,-77.925 l 61.12,-65.438 -31.89,-85.791 z"
               fill="#1f498a"
               id="path9736" />
          </g>
        </g>
      </g>
    </g>
    <path
       d="m 11.664145,49.796769 c 0,-21.604592 17.488641,-39.118538 39.061177,-39.118538 21.572537,0 39.061177,17.513946 39.061177,39.118538 0,21.604592 -17.48864,39.118538 -39.061177,39.118538 -21.572536,0 -39.061177,-17.513946 -39.061177,-39.118538 z"
       fill="#ffffff"
       fill-rule="evenodd"
       id="path9830"
       style="display:block;stroke-width:0.125288;fill:#000000;fill-opacity:1" />
    <path
       d="m 992,715 c 0,-159.058 128.94,-288 288,-288 159.06,0 288,128.942 288,288 0,159.058 -128.94,288 -288,288 -159.06,0 -288,-128.942 -288,-288 z"
       fill="#a0a0a0"
       fill-rule="evenodd"
       id="path9746"
       clip-path="url(#clipPath9800)"
       inkscape:path-effect="#path-effect9804"
       inkscape:original-d="m 992,715 c 0,-159.058 128.94,-288 288,-288 159.06,0 288,128.942 288,288 0,159.058 -128.94,288 -288,288 -159.06,0 -288,-128.942 -288,-288 z"
       sodipodi:insensitive="true"
       style="display:inline"
       transform="matrix(0.12519608,0,0,0.12537993,-109.52566,-39.849881)" />
    <path
       style="fill:#1f498a;fill-opacity:1;stroke:none;stroke-width:0.763118"
       d="m 32.681002,62.697612 c 0,-0.08306 0.286689,-0.236738 0.637085,-0.3415 0.845326,-0.252738 1.966422,-1.302746 2.416747,-2.263503 0.684726,-1.460846 0.484914,-3.230462 -0.873012,-7.731773 -0.744713,-2.468607 -1.038249,-3.712975 -1.31648,-5.580862 l -0.211101,-1.417214 0.75266,-1.496722 c 0.413964,-0.823199 0.936516,-2.082102 1.161229,-2.79756 0.70145,-2.233334 1.280072,-3.53405 2.155172,-4.844729 2.70305,-4.048484 7.396495,-6.880515 13.198573,-7.964035 2.193792,-0.409683 6.922316,-0.372955 9.305489,0.07228 2.512882,0.469466 5.164434,1.259019 7.406019,2.20529 1.895735,0.800275 2.308869,1.042971 1.457921,0.856461 -0.864411,-0.189462 -2.893885,-0.1194 -3.467321,0.119698 -0.819984,0.341895 -1.805209,1.295581 -2.265954,2.193411 -0.587555,1.144948 -0.674298,2.997801 -0.200988,4.293198 0.292209,0.799737 0.315695,1.009117 0.156281,1.393177 -0.103181,0.248595 -0.223376,0.451991 -0.267094,0.451991 -0.04371,0 -0.496191,-0.453821 -1.005506,-1.008491 -0.509316,-0.55467 -0.972305,-1.008013 -1.028861,-1.00743 -0.05656,5.57e-4 -0.269007,0.244556 -0.472103,0.542163 l -0.369264,0.541102 0.60248,0.714858 c 1.112969,1.320562 1.427359,1.852926 2.141997,3.627109 0.391234,0.971293 0.694642,1.780687 0.674243,1.798655 -0.02041,0.01797 -0.666769,-0.06122 -1.436376,-0.175966 l -1.399288,-0.208628 -1.058545,-1.164913 -1.058545,-1.16491 -1.210891,0.09318 -1.210897,0.09318 -0.845846,-0.687514 C 54.583614,41.459481 53.7508,40.896795 53.198139,40.5872 c -0.552662,-0.309594 -1.249714,-0.818767 -1.54901,-1.131495 -0.822375,-0.859294 -1.616878,-1.207788 -2.718443,-1.19239 -3.232397,0.04518 -4.091626,0.02946 -4.477859,-0.08195 -0.430238,-0.124103 -0.42667,-0.129098 0.544168,-0.76193 0.537484,-0.350355 1.413495,-0.803157 1.94669,-1.006229 0.994926,-0.378924 1.156976,-0.609874 0.779666,-1.111136 -0.179668,-0.238689 -0.273333,-0.230441 -1.240059,0.109199 -3.131917,1.10034 -5.837013,3.333091 -7.254392,5.987683 -0.680276,1.274081 -1.261698,3.214948 -1.261698,4.211725 v 0.59579 l 0.893989,-0.01546 c 1.418023,-0.02454 1.648405,-0.134327 1.771131,-0.844105 0.143368,-0.829155 0.718617,-2.330203 0.974092,-2.541786 0.190937,-0.158134 0.984282,-0.05322 2.841568,0.375774 0.186703,0.04312 0.388983,0.235337 0.449512,0.427139 0.06053,0.191804 0.2701,0.584531 0.465715,0.872729 l 0.355663,0.523996 -0.749033,0.590843 c -1.150819,0.907773 -2.028495,2.01025 -2.902628,3.64608 L 41.26971,50.734093 41.027217,49.595135 C 40.893846,48.968711 40.73992,48.22927 40.68516,47.951934 L 40.5856,47.447689 h -1.330602 -1.330603 l 0.09645,0.814551 c 0.05305,0.448003 0.271266,1.477827 0.484922,2.288498 0.213655,0.810672 0.390847,1.753221 0.39376,2.094557 0.009,1.049773 0.107414,1.077767 1.535851,0.436697 1.152914,-0.517416 1.272675,-0.610867 1.192313,-0.930389 -0.22786,-0.905976 1.042978,-3.417332 2.538729,-5.016885 l 0.940552,-1.005825 -0.09448,1.202432 c -0.05313,0.676201 -0.03347,1.20197 0.04494,1.201377 0.07668,-6.58e-4 0.45426,-0.387001 0.839065,-0.858718 0.96886,-1.187687 1.547616,-1.610658 2.068037,-1.511382 l 0.419586,0.08004 0.0025,2.192835 c 0.0033,2.958939 0.307833,4.197149 1.10087,4.475737 0.111668,0.03923 0.762422,4.381171 0.762422,5.087016 0,0.216267 -0.181381,0.296987 -0.85645,0.381155 -0.953712,0.11891 -2.479373,0.537545 -3.404432,0.934163 l -0.607183,0.260328 0.10059,-1.369734 c 0.05532,-0.753353 0.145335,-1.930356 0.200025,-2.615559 L 45.781892,54.342755 45.33393,54.13335 C 45.08082,54.01503 44.209676,53.903265 43.3312,53.876405 l -1.554764,-0.04754 -1.465914,0.727009 -1.465913,0.727007 -0.277535,1.130205 c -0.729699,2.971547 -3.307436,6.090408 -5.248444,6.35021 -0.368339,0.0493 -0.637566,0.02157 -0.637566,-0.06569 z M 59.283027,37.496136 c 0.340927,-0.477789 0.341891,-0.491711 0.04945,-0.716842 -0.164023,-0.126276 -0.949601,-0.541809 -1.745734,-0.923409 -2.036348,-0.976064 -3.860336,-1.331982 -6.435455,-1.255767 -1.086168,0.03215 -2.016602,0.100115 -2.067628,0.151029 -0.05102,0.05092 -0.049,0.266586 0.0044,0.479259 0.09641,0.383329 0.115684,0.387385 2.223107,0.467822 2.589031,0.09882 3.511171,0.330171 5.624073,1.411017 0.897878,0.459303 1.715195,0.843883 1.81626,0.854621 0.101076,0.01069 0.340216,-0.199739 0.531441,-0.46773 z"
       id="path4232" />
    <path
       style="fill:#1f498a;fill-opacity:1;stroke:none;stroke-width:0.38156"
       d="m 33.385802,41.784625 c 0.384566,-3.225795 1.660426,-6.324815 3.913799,-9.506489 1.624861,-2.294237 4.247526,-4.260203 7.586304,-5.686743 5.644375,-2.411636 12.437776,-2.974366 18.268485,-1.513267 1.777429,0.445401 3.679569,1.187753 5.292341,2.065452 l 0.939,0.511022 1.252044,1.904776 c 0.688626,1.047627 1.239907,1.916892 1.225071,1.931699 -0.01483,0.01481 -0.353639,-0.179575 -0.752892,-0.431962 -1.609933,-1.017718 -3.338477,-1.821614 -5.506813,-2.561063 -7.90053,-2.694246 -16.492951,-2.417575 -22.354165,0.719792 -2.827558,1.513523 -5.172528,3.686641 -6.905549,6.399474 -0.59933,0.938176 -1.552593,2.948729 -2.173013,4.583162 -0.317112,0.835397 -0.63378,1.620856 -0.703709,1.745465 l -0.127145,0.226562 z"
       id="path4234" />
    <path
       style="fill:#1f498a;fill-opacity:1;stroke:none;stroke-width:0.38156"
       d="m 59.656167,71.410503 c 0,-0.08275 -0.131182,-0.372537 -0.291519,-0.643977 -0.410647,-0.695204 -1.310499,-1.500966 -2.396145,-2.145587 -0.496374,-0.294732 -0.931912,-0.590726 -0.967867,-0.657763 -0.03595,-0.06704 -0.08852,-0.416603 -0.116808,-0.776814 -0.04052,-0.516132 -0.01629,-0.827552 0.114407,-1.469478 0.164003,-0.805492 0.864786,-2.984345 1.004786,-3.124051 0.03985,-0.03975 0.183996,-0.04782 0.320365,-0.01792 0.285903,0.06266 0.294138,0.0013 -0.141411,1.053376 -0.495471,1.196779 -0.795472,2.681137 -0.649473,3.213454 0.05136,0.187246 0.187758,0.300952 0.697927,0.581822 1.049812,0.57796 2.018715,1.308259 2.984745,2.249711 0.503477,0.490668 0.92475,0.940071 0.936152,0.998668 0.01432,0.07362 -0.135424,0.138665 -0.48456,0.210478 -0.421009,0.0866 -0.547448,0.151856 -0.75795,0.39123 -0.202871,0.230698 -0.252649,0.257661 -0.252649,0.136856 z"
       id="path4962" />
    <path
       style="fill:#1f498a;fill-opacity:1;stroke:none;stroke-width:0.38156"
       d="m 48.540305,73.299962 c -0.10087,-0.181338 -0.404661,-0.671663 -0.67509,-1.08961 -0.270427,-0.417947 -0.491688,-0.775769 -0.491688,-0.795152 0,-0.01941 0.708391,-0.03506 1.5742,-0.03481 2.383612,5.07e-4 3.802009,0.277511 4.787747,0.934394 l 0.468243,0.312028 1.540715,0.04565 c 1.636891,0.04849 2.792988,-0.03055 3.730577,-0.255123 l 0.552865,-0.132412 0.04148,-0.308724 c 0.05716,-0.425243 0.246354,-0.5833 0.818602,-0.683891 0.550007,-0.09668 0.472031,-0.14516 1.014347,0.630665 0.164033,0.234664 0.44328,0.714669 0.620549,1.066669 l 0.322304,0.640008 H 55.78444 48.723709 Z"
       id="path4964" />
    <path
       style="fill:#1f498a;fill-opacity:1;stroke:none;stroke-width:0.38156"
       d="M 53.786933,71.874651 C 53.40593,71.564939 52.632212,71.229744 51.904038,71.058923 51.33144,70.924599 50.875005,70.892437 49.068796,70.859148 l -2.152774,-0.03968 -0.638915,-0.816759 c -1.624076,-2.076144 -3.946127,-4.013071 -5.94219,-4.956642 -0.788884,-0.372922 -0.815128,-0.411148 -0.81105,-1.181321 0.0026,-0.498364 0.110678,-0.92561 0.474448,-1.876235 l 0.3135,-0.819263 0.557369,0.575582 c 1.315705,1.358694 4.197672,3.547946 6.429011,4.883721 0.364749,0.218354 1.064393,0.585849 1.554764,0.816655 1.378052,0.648615 2.444044,1.403992 3.577072,2.534765 0.832614,0.830955 1.720182,1.956568 1.620188,2.054728 -0.01655,0.01621 -0.135019,-0.05579 -0.263286,-0.160053 z"
       id="path4966" />
    <path
       style="fill:#1f498a;fill-opacity:1;stroke:none;stroke-width:0.38156"
       d="m 42.916421,42.207929 c -0.890816,-0.204499 -1.638436,-0.390553 -1.661384,-0.413452 -0.115199,-0.114959 1.692962,-2.788841 1.953318,-2.888542 0.0585,-0.02241 0.682841,0.01395 1.387428,0.0808 0.704586,0.06683 1.323729,0.12152 1.37587,0.12152 0.05214,0 -0.04312,0.165819 -0.211685,0.368486 -0.700433,0.842128 -0.97387,1.488493 -1.066575,2.521227 -0.02969,0.330668 -0.07722,0.596845 -0.105644,0.591501 -0.02842,-0.0054 -0.78052,-0.177029 -1.671333,-0.381531 z"
       id="path4968" />
    <path
       style="fill:#1f498a;fill-opacity:1;stroke:none;stroke-width:0.38156"
       d="m 45.321959,47.447687 c 0.08616,-0.673843 0.417903,-1.768304 0.643042,-2.121488 0.06039,-0.09473 0.335023,0.04322 1.01345,0.509056 0.01786,0.01227 -0.210128,0.275355 -0.506654,0.584639 -0.296526,0.309286 -0.685472,0.736883 -0.864327,0.950218 l -0.325188,0.387881 z"
       id="path4970" />
    <path
       style="fill:#1f498a;fill-opacity:1;stroke:none;stroke-width:0.38156"
       d="m 40.611438,43.502401 c -6.6e-4,-0.03656 0.05706,-0.30711 0.1282,-0.601215 0.101649,-0.420271 0.159892,-0.534741 0.272083,-0.534741 0.07851,0 0.141683,0.02619 0.140383,0.05818 -0.0036,0.08694 -0.539346,1.155029 -0.540666,1.077774 z"
       id="path4972" />
    <path
       style="fill:#1f498a;fill-opacity:1;stroke:none;stroke-width:0.134902"
       d="m 52.660906,41.772417 c -0.03117,-0.262947 -0.104337,-0.602283 -0.177553,-0.823293 -0.04133,-0.124712 -0.06964,-0.232215 -0.06294,-0.238896 0.0067,-0.0067 0.0508,0.0076 0.09801,0.03154 0.147036,0.07484 0.704241,0.448612 0.704241,0.472412 0,0.05519 -0.48017,0.688517 -0.522012,0.688517 -0.01336,0 -0.03127,-0.05863 -0.03975,-0.130279 z"
       id="path4976" />
    <path
       style="fill:#1f498a;fill-opacity:1;stroke:none;stroke-width:0.134902"
       d="m 51.550293,45.473177 c -0.146416,-0.316996 -0.145178,-0.334724 0.03625,-0.518234 0.129962,-0.131457 0.154336,-0.146905 0.142131,-0.09009 -0.0081,0.03771 -0.0234,0.226332 -0.03402,0.419156 -0.01058,0.192823 -0.02813,0.356046 -0.03894,0.362719 -0.01081,0.0067 -0.05826,-0.07142 -0.105427,-0.173546 z"
       id="path4978" />
    <path
       style="fill:#1f498a;fill-opacity:1;stroke:none;stroke-width:0.539604"
       d="m 38.298521,64.288876 c -0.332563,-0.110127 -0.839655,-0.228084 -1.12687,-0.262128 -0.526904,-0.06246 -0.733142,-0.250681 -0.274845,-0.250841 0.461634,-1.34e-4 1.565876,-0.613187 1.98527,-1.102134 0.435116,-0.507277 0.474089,-0.511316 0.284164,-0.02944 -0.06695,0.169863 -0.153526,0.654426 -0.192392,1.076808 l -0.07067,0.767965 z"
       id="path4982" />
    <path
       style="fill:#a0a0a0;fill-opacity:1;stroke:none;stroke-width:0.763118"
       d="m 32.034561,72.329744 c -1.421306,-2.527349 -3.671468,-4.918782 -6.199773,-6.589011 l -1.034261,-0.683246 2.916594,-0.04231 c 2.256999,-0.03274 3.10153,0.01134 3.73434,0.194922 1.156308,0.335447 3.045392,1.642892 4.456658,3.084475 1.109711,1.13355 2.975513,3.65998 3.596278,4.869619 l 0.258769,0.504246 h -3.487879 -3.487881 z"
       id="path5191" />
    <path
       style="fill:#a0a0a0;fill-opacity:1;stroke:none;stroke-width:0.763118"
       d="m 40.08577,72.310862 c -1.61239,-2.802341 -3.783492,-5.022906 -6.830735,-6.986354 l -1.447161,-0.932455 2.069068,-0.109221 c 2.748029,-0.145061 4.358866,0.156516 6.425902,1.203041 2.466459,1.248751 5.188691,4.077032 7.091755,7.368023 l 0.471025,0.814551 h -3.49937 -3.499368 z"
       id="path5193" />
    <path
       style="fill:#a0a0a0;fill-opacity:1;stroke:none;stroke-width:0.763118"
       d="m 47.445309,65.899702 c -2.104966,-1.280311 -3.505428,-2.310951 -5.343124,-3.932156 l -1.550787,-1.368098 0.284267,-0.718877 c 1.112396,-2.813117 2.093235,-5.082123 2.241949,-5.186374 0.194315,-0.136219 1.60198,-0.05679 1.758311,0.09922 0.05426,0.05416 -0.0177,1.367074 -0.159914,2.917609 -0.142215,1.550535 -0.229488,2.84818 -0.19394,2.883654 0.03555,0.03547 0.718162,-0.178843 1.516915,-0.476264 0.798753,-0.297422 2.046977,-0.655806 2.773829,-0.796412 0.726853,-0.140604 1.524021,-0.319194 1.771489,-0.396865 0.400909,-0.125834 0.583198,-0.0475 1.672956,0.718872 l 1.223025,0.860093 -1.376778,1.345779 c -1.489748,1.456206 -2.173058,2.506093 -2.617652,4.021945 -0.156391,0.533218 -0.322011,0.969585 -0.368043,0.969703 -0.04604,1.17e-4 -0.780658,-0.423702 -1.632503,-0.941823 z"
       id="path5195" />
    <path
       style="fill:#a0a0a0;fill-opacity:1;stroke:none;stroke-width:0.763118"
       d="m 55.505566,72.116919 -0.963333,-0.07758 -0.602985,-0.930914 c -0.711805,-1.098916 -2.06361,-2.374779 -3.417324,-3.22534 -0.534451,-0.335805 -0.971726,-0.624993 -0.971726,-0.64264 0,-0.260978 0.605197,-1.920646 0.937458,-2.570846 0.459739,-0.899669 2.172672,-3.010541 2.564864,-3.160727 0.195449,-0.07485 0.212792,0.04744 0.113326,0.799208 -0.06459,0.488164 -0.111437,1.934851 -0.104121,3.214858 0.01158,2.01999 0.05922,2.445083 0.360989,3.219413 0.191226,0.490668 0.404835,0.892126 0.474687,0.892126 0.06986,0 0.175943,-0.26182 0.235754,-0.581822 0.25465,-1.362331 2.199914,-6.820029 2.370252,-6.650045 0.03676,0.03669 -0.14178,0.718873 -0.39678,1.515947 -0.530086,1.656928 -0.72557,2.939999 -0.579092,3.800877 0.08971,0.527271 0.203992,0.653102 0.987834,1.087715 0.487516,0.270306 1.177582,0.741768 1.533491,1.047693 0.640029,0.550142 1.426754,1.873357 1.23035,2.06935 -0.15261,0.152288 -2.675666,0.281143 -3.773648,0.192721 z"
       id="path5197" />
    <path
       style="fill:#a0a0a0;fill-opacity:1;stroke:none;stroke-width:0.763118"
       d="m 53.697773,67.920534 c -0.363321,-1.341616 -0.166511,-6.974586 0.243684,-6.974586 0.117717,0 1.128971,0.559454 2.095418,1.159239 0.01894,0.01174 -0.236547,0.648521 -0.56771,1.415059 -0.331163,0.766538 -0.789695,2.019459 -1.018967,2.784269 -0.614751,2.050748 -0.627362,2.077831 -0.752425,1.616019 z"
       id="path5199" />
    <path
       style="fill:#a0a0a0;fill-opacity:1;stroke:none;stroke-width:0.763118"
       d="m 63.387338,72.931901 c -1.085362,-2.058104 -2.885956,-3.936515 -5.267013,-5.494636 l -1.147156,-0.750678 2.002277,0.004 c 1.657782,0.0032 2.177688,0.06368 3.021857,0.350871 2.564636,0.872497 4.743161,2.848927 6.663285,6.04516 l 0.349527,0.581821 h -2.617176 -2.617182 z"
       id="path5201" />
    <path
       style="fill:#a0a0a0;fill-opacity:1;stroke:none;stroke-width:0.763118"
       d="M 68.864094,72.357998 C 67.907401,70.836755 66.248593,69.009953 64.916725,68.010855 L 63.9787,67.307196 h 1.316063 c 1.199753,0 1.414763,0.04927 2.432816,0.557525 1.676718,0.83708 3.547129,2.764527 5.217932,5.377054 l 0.272871,0.426672 -1.76699,-0.003 -1.766995,-0.003 z"
       id="path5203" />
    <path
       style="fill:#a0a0a0;fill-opacity:1;stroke:none;stroke-width:0.269803"
       d="m 47.951179,45.229964 c -1.105816,-0.26701 -2.028123,-1.182729 -2.313078,-2.296554 -0.105568,-0.412629 -0.106497,-1.118389 -0.0019,-1.510278 0.302898,-1.135885 1.278512,-2.056381 2.435902,-2.298283 1.604897,-0.335432 3.252279,0.708697 3.665302,2.323108 0.174872,0.683534 0.08223,1.468923 -0.255839,2.168948 -0.233312,0.483108 -0.87227,1.112828 -1.380864,1.360901 -0.663959,0.323854 -1.463863,0.417695 -2.149426,0.252158 z"
       id="path5205" />
    <path
       style="fill:#a0a0a0;fill-opacity:1;stroke:none;stroke-width:0.269803"
       d="m 54.600632,54.702624 c -0.32725,-0.444877 -1.080397,-1.117157 -1.493689,-1.333306 -0.525622,-0.274901 -0.928861,-0.400736 -1.990534,-0.621171 -0.50438,-0.104726 -0.970365,-0.213389 -1.035522,-0.241479 -0.0808,-0.03484 -0.138953,-0.135062 -0.182868,-0.315177 -0.340088,-1.39476 -0.408857,-1.976457 -0.410592,-3.473103 -0.0012,-1.00174 0.02104,-1.423586 0.09961,-1.892485 0.0556,-0.331871 0.12182,-0.642095 0.147145,-0.689387 0.02532,-0.04729 0.216582,-0.152754 0.425023,-0.234361 0.208435,-0.08161 0.51266,-0.23249 0.676049,-0.335297 l 0.297077,-0.18692 0.155255,0.268357 c 0.161922,0.279869 0.43489,0.546779 0.559191,0.546779 0.100925,0 0.139085,-0.126496 0.139085,-0.461085 0,-0.497473 0.166446,-1.29262 0.44714,-2.136128 0.305053,-0.916689 0.451373,-1.233232 0.791269,-1.711761 0.365909,-0.515145 0.322411,-0.509326 0.894715,-0.11969 0.521266,0.354886 1.165032,0.890789 1.165032,0.969826 0,0.02497 -0.117154,0.06292 -0.260341,0.08435 -0.364778,0.05459 -1.077969,0.323042 -1.391359,0.523724 -0.375957,0.24075 -0.694255,0.607176 -0.895324,1.030708 -0.172912,0.364218 -0.173948,0.371651 -0.173025,1.244082 10e-4,0.869619 0.003,0.883124 0.205994,1.471496 0.570883,1.653118 1.751856,3.369343 3.16401,4.598029 l 0.347617,0.302459 -0.17642,0.297278 c -0.312684,0.526882 -0.856228,1.665887 -1.041122,2.181704 -0.09893,0.275964 -0.199104,0.501754 -0.222625,0.501754 -0.02351,0 -0.131871,-0.12114 -0.240785,-0.269196 z"
       id="path5207" />
    <path
       style="fill:#a0a0a0;fill-opacity:1;stroke:none;stroke-width:0.269803"
       d="m 52.122328,58.804499 c -0.785533,-0.57519 -1.449535,-1.065871 -1.475559,-1.090401 -0.04584,-0.04321 -0.709252,-4.830593 -0.674247,-4.865524 0.03371,-0.03364 1.780566,0.312624 2.155679,0.427291 0.638807,0.195276 1.202987,0.522216 1.641192,0.951056 0.52718,0.515922 0.872757,0.982992 0.867335,1.172266 -0.0054,0.190011 -0.994973,4.359275 -1.047082,4.411763 -0.02148,0.02164 -0.681781,-0.431262 -1.467318,-1.006451 z"
       id="path5209" />
    <path
       style="fill:#a0a0a0;fill-opacity:1;stroke:none;stroke-width:0.269803"
       d="m 57.397422,51.798612 c -1.590691,-0.768519 -3.447076,-3.10486 -4.015236,-5.05335 -0.528567,-1.812697 0.159484,-3.060637 1.937709,-3.514484 0.380962,-0.09723 2.053279,-0.273807 2.564164,-0.270746 l 0.23087,0.0014 0.926248,1.094257 c 0.76231,0.900577 0.9569,1.099948 1.099388,1.126413 0.09522,0.01769 0.785045,0.112656 1.532936,0.211045 0.747888,0.09839 1.374098,0.193157 1.391577,0.210597 0.01746,0.01744 -0.130292,0.250193 -0.328371,0.517232 -0.353141,0.476077 -0.526571,0.839762 -0.526571,1.104199 0,0.07308 0.13313,0.371066 0.295843,0.662199 0.386318,0.691197 0.7887,1.484672 0.831747,1.640137 0.03381,0.122103 0.02823,0.123424 -0.521414,0.123424 -0.655661,0 -0.351587,-0.135249 -2.890027,1.285449 -1.054752,0.590315 -1.956945,1.0733 -2.004876,1.0733 -0.04792,0 -0.283725,-0.09497 -0.523987,-0.211056 z m 3.328544,-3.371185 c 0,-0.187779 0.288686,-0.607253 0.51322,-0.745734 0.247827,-0.152846 0.476225,-0.420608 0.476225,-0.558298 0,-0.09765 -0.04463,-0.105503 -0.599876,-0.105503 -0.329935,0 -1.041096,-0.05997 -1.580366,-0.133263 -1.96554,-0.267143 -2.217592,-0.253851 -2.570113,0.135537 -0.178121,0.196743 -0.801534,1.346214 -0.801534,1.477885 0,0.03689 0.772133,0.05578 2.28122,0.05578 h 2.281224 z"
       id="path5211" />
    <path
       style="fill:#a0a0a0;fill-opacity:1;stroke:none;stroke-width:0.269803"
       d="m 56.338719,59.100398 -0.565902,-0.310144 0.04417,-0.578991 c 0.0741,-0.970922 0.04828,-1.922607 -0.05776,-2.127045 -0.116773,-0.225199 -0.296625,-0.396398 -0.488973,-0.465457 -0.08314,-0.02985 -0.151163,-0.08732 -0.151163,-0.127707 0,-0.04039 0.107836,-0.366051 0.239633,-0.723691 0.290066,-0.787096 0.928521,-2.057423 1.266163,-2.519279 l 0.246771,-0.337556 0.440107,0.218969 c 0.780389,0.388277 0.573172,0.452976 2.997484,-0.935863 l 2.1184,-1.213588 h 0.544138 c 0.369909,0 0.561394,0.02195 0.598038,0.06857 0.115849,0.147352 1.398178,3.325383 1.379931,3.41992 -0.01069,0.05523 -0.142898,0.19379 -0.293864,0.307892 l -0.274485,0.207458 -2.892758,2.68e-4 -2.892753,2.68e-4 -0.03437,0.171421 c -0.01889,0.09428 -0.03437,0.251497 -0.03437,0.34937 0,0.291108 -0.158489,1.119301 -0.30916,1.615504 -0.07736,0.254776 -0.332479,0.908918 -0.566933,1.453649 -0.234449,0.544731 -0.482611,1.163213 -0.551464,1.374403 -0.06885,0.21119 -0.140898,0.401483 -0.160099,0.422871 -0.01919,0.02139 -0.289573,-0.100676 -0.60082,-0.271255 z"
       id="path5213" />
    <path
       style="fill:#a0a0a0;fill-opacity:1;stroke:none;stroke-width:0.269803"
       d="m 59.119462,60.60351 c -1.288233,-0.673397 -1.858018,-0.981875 -1.880428,-1.018059 -0.03417,-0.05513 0.305281,-1.045922 0.518778,-1.514343 0.629871,-1.381946 0.932411,-2.29022 1.06209,-3.18857 l 0.07026,-0.486692 0.546859,-0.0414 c 0.588641,-0.04457 2.827921,0.0041 2.828337,0.0615 0.01467,2.039589 0.10302,3.470618 0.299449,4.848967 0.06981,0.48987 0.106076,0.913189 0.0806,0.940712 -0.03238,0.03495 -2.902994,0.631208 -3.058705,0.635316 -0.0068,1.34e-4 -0.217077,-0.106669 -0.467238,-0.237433 z"
       id="path5215" />
    <path
       style="fill:#a0a0a0;fill-opacity:1;stroke:none;stroke-width:0.269803"
       d="m 58.554681,61.889159 c -0.362797,-0.144581 -1.185273,-0.467962 -1.827724,-0.718626 l -1.1681,-0.45575 0.0015,-0.608726 c 10e-4,-0.546769 0.05301,-0.982922 0.125394,-1.055157 0.01452,-0.01448 0.863888,0.427558 1.887504,0.982309 1.854079,1.004821 1.861181,1.009346 1.876686,1.196337 0.01964,0.23659 -0.111062,0.887818 -0.182138,0.907629 -0.0293,0.0082 -0.35014,-0.103441 -0.712937,-0.248016 z"
       id="path5217" />
    <path
       style="fill:#a0a0a0;fill-opacity:1;stroke:none;stroke-width:0.269803"
       d="m 60.354721,62.60231 c -0.400695,-0.172304 -0.75076,-0.33664 -0.777911,-0.365191 -0.04443,-0.04667 0.06038,-1.040732 0.115478,-1.095725 0.01167,-0.01166 0.707339,-0.153579 1.545878,-0.315362 1.060896,-0.204684 1.53939,-0.276298 1.573192,-0.235453 0.0267,0.03228 0.08973,0.217429 0.140019,0.411434 l 0.09144,0.352734 -0.222061,0.442658 -0.222062,0.442657 -0.659154,0.342843 c -0.362533,0.188563 -0.70351,0.340556 -0.757716,0.337764 -0.05421,-0.0028 -0.426405,-0.146055 -0.827106,-0.318359 z"
       id="path5219" />
    <path
       style="opacity:1;fill:#000000;stroke-width:0.208186;paint-order:stroke fill markers;fill-opacity:1"
       d="m 216.35044,183.37299 c -2.10948,-0.0421 -3.8719,-0.11313 -3.91648,-0.15785 -0.21276,-0.21346 2.36639,-4.86596 3.10933,-5.6089 0.7175,-0.7175 1.22311,-0.90285 2.62912,-0.96377 1.20031,-0.052 2.32425,0.0559 7.98191,0.76668 0.90965,0.11428 2.79866,0.24973 4.19779,0.301 1.39912,0.0513 2.62863,0.14562 2.73222,0.20964 0.40927,0.25295 -0.41336,1.29556 -1.9527,2.4749 -0.72049,0.55198 -1.53241,1.81317 -1.62851,2.52962 l -0.0788,0.58788 -4.6192,-0.0313 c -2.54057,-0.0172 -6.34515,-0.0658 -8.45463,-0.10787 z"
       id="path1"
       transform="scale(0.26458333)" />
    <path
       style="opacity:1;fill:#000000;fill-opacity:1;stroke-width:0.416371;paint-order:stroke fill markers"
       d="m 185.9571,313.04343 c -23.70167,-1.29567 -44.93748,-8.3845 -64.17561,-21.42279 C 75.017444,259.92716 55.376655,200.79803 73.839402,147.28968 88.202295,105.66344 123.77355,74.523225 167.02146,65.715123 c 35.89485,-7.310538 73.61209,1.806023 102.3507,24.738991 40.65302,32.440476 56.97331,86.451816 41.11237,136.059756 -10.36859,32.42962 -34.56519,60.07744 -65.27428,74.58448 -18.51822,8.74805 -39.68357,13.01485 -59.25315,11.94508 z m -35.66695,-34.83894 c 0,-0.41048 -2.90791,-5.33087 -4.54012,-7.68221 -8.07599,-11.63413 -15.98081,-19.20129 -24.08798,-23.05905 -3.52297,-1.67639 -4.78493,-1.81097 -17.03422,-1.81653 -6.051152,-0.003 -10.997614,0.0921 -10.992134,0.21073 0.0055,0.11865 1.785231,1.39987 3.955004,2.84715 10.59175,7.0649 18.64673,15.98347 24.96398,27.64042 l 1.12908,2.08344 13.3032,0.002 c 7.31676,0.001 13.30319,-0.10058 13.30319,-0.22587 z m 30.45951,-0.40349 c -1.94036,-3.62561 -6.16778,-9.95992 -9.10551,-13.64357 -9.75539,-12.23244 -20.38234,-19.17807 -32.14037,-21.00651 -2.31948,-0.3607 -4.35213,-0.413 -10.49874,-0.27018 -4.1923,0.0974 -7.92488,0.25878 -8.29462,0.3586 -0.57658,0.15565 -0.0649,0.57715 3.59546,2.96175 13.3377,8.68906 20.68869,16.17352 27.56005,28.06046 0.91449,1.58201 1.84309,3.1676 2.06356,3.52355 l 0.40084,0.64719 h 13.37859 13.3786 z m 55.80145,-1.72957 c -1.28156,-2.54887 -3.45673,-5.98825 -4.15223,-6.56546 -0.60912,-0.50552 -3.50303,-0.16314 -4.42233,0.52322 -0.44411,0.33158 -0.84865,1.03761 -1.03644,1.80885 l -0.308,1.26499 -2.14449,0.49917 c -3.15563,0.73452 -9.2206,1.10791 -14.63663,0.90111 l -4.76605,-0.18198 -1.84905,-1.10706 c -3.73366,-2.23542 -7.19115,-3.07027 -13.97097,-3.37347 -6.36067,-0.28446 -10.30202,-0.11415 -10.09089,0.43605 0.088,0.22923 1.22947,2.15571 2.53668,4.28107 l 2.37675,3.86429 26.82533,0.005 26.82533,0.005 z m 22.57197,-0.73124 c -2.85602,-4.62111 -5.61391,-8.1992 -9.00281,-11.68022 -3.82655,-3.93058 -7.05981,-6.36963 -11.09421,-8.36902 -5.92786,-2.93777 -8.3478,-3.38864 -17.5158,-3.26343 l -6.29797,0.086 3.42161,2.27042 c 10.05884,6.67459 15.90182,12.68235 20.80107,21.3877 l 1.49738,2.66064 h 10.05088 10.05088 z m 17.55157,2.73255 c -0.90629,-1.55471 -5.04925,-7.43584 -6.63598,-9.4201 -2.51692,-3.14746 -6.87463,-7.50161 -9.43986,-9.43214 -2.52401,-1.89951 -7.0847,-4.22202 -9.12079,-4.64471 -0.85543,-0.17758 -3.40721,-0.28561 -5.70071,-0.24133 l -4.15208,0.0802 2.58351,1.9902 c 6.95735,5.35957 12.49174,11.53383 17.2466,19.24058 l 1.71943,2.78689 h 6.85473 c 5.40381,0 6.81037,-0.0761 6.64515,-0.35955 z m -53.25288,-5.83766 c 1.01167,-0.25306 1.04063,-1.0955 0.10136,-2.94906 -1.77891,-3.51051 -4.60241,-6.27926 -9.06573,-8.88992 -3.4827,-2.03707 -3.94712,-2.47904 -4.34415,-4.13407 -0.68797,-2.86776 -0.007,-7.67613 2.04903,-14.47515 0.62672,-2.07215 1.21398,-4.35001 1.30504,-5.06191 0.15995,-1.25058 0.14964,-1.2729 -0.30478,-0.65968 -1.15467,1.55813 -7.0605,18.18093 -8.51201,23.95825 -0.33785,1.3447 -0.73177,2.56538 -0.87539,2.71263 -0.32894,0.33724 -1.84884,-2.96018 -2.48396,-5.38893 -0.53711,-2.05397 -0.6962,-13.69209 -0.28484,-20.838 0.22339,-3.8807 0.20764,-4.09882 -0.29595,-4.09882 -1.47266,0 -8.80732,9.11494 -10.62691,13.20628 -0.75755,1.70335 -2.97583,7.96515 -2.97583,8.40022 0,0.1416 1.45616,1.20337 3.23591,2.35949 6.23006,4.04704 10.88545,8.53557 14.09417,13.58902 1.24544,1.96146 1.66136,2.40253 2.37303,2.51654 1.25499,0.20105 15.67725,-0.0133 16.61101,-0.24689 z m -19.05592,-0.24298 c 0,-0.69158 -2.58099,-3.94257 -5.58902,-7.03987 -3.89533,-4.01095 -7.99574,-7.03937 -12.9494,-9.56398 -7.53045,-3.83786 -12.90559,-7.24302 -20.29253,-12.85533 -4.68787,-3.56167 -6.70666,-5.28862 -10.26059,-8.77736 l -2.92586,-2.87217 -0.47781,1.12306 c -0.26279,0.61768 -0.94,2.48215 -1.5049,4.14325 -0.82298,2.41999 -1.03258,3.48281 -1.0547,5.34813 -0.0185,1.55854 0.0998,2.48174 0.35787,2.79328 0.21202,0.25593 1.75296,1.18909 3.4243,2.07368 7.87776,4.16947 15.91665,10.98277 21.76916,18.45029 l 2.28037,2.90965 7.49928,0.20005 c 4.1246,0.11002 8.3784,0.31911 9.4529,0.46463 2.77645,0.37601 6.3158,1.61575 8.21312,2.87682 1.82603,1.21369 2.05781,1.29544 2.05781,0.72587 z m 22.42513,-2.60951 c 0.71244,-0.73505 1.37232,-1.08037 2.51964,-1.31855 0.85493,-0.17749 1.62358,-0.50293 1.70811,-0.72322 0.21302,-0.55511 -1.39308,-2.38463 -4.86369,-5.54028 -2.58562,-2.35098 -6.91857,-5.45945 -10.94807,-7.85418 -1.01061,-0.60061 -1.31124,-0.96551 -1.46331,-1.7761 -0.38438,-2.04891 0.75759,-7.11076 2.70955,-12.01028 0.64516,-1.61937 1.10279,-3.12732 1.01696,-3.35098 -0.10552,-0.27499 -0.50608,-0.37772 -1.237,-0.31726 l -1.08095,0.0894 -1.6359,4.88983 c -2.03075,6.07005 -2.68205,9.43752 -2.42394,12.53259 0.10391,1.24597 0.26697,2.46875 0.36234,2.7173 0.0954,0.24854 2.00183,1.65823 4.23655,3.13263 4.81639,3.17771 7.96883,6.24846 9.10202,8.86614 0.39262,0.90695 0.78554,1.65121 0.87315,1.65391 0.0876,0.003 0.59366,-0.44323 1.12454,-0.99096 z M 203.8062,257.11797 c 0.17793,-0.33246 1.02742,-2.86307 1.88775,-5.62357 0.86033,-2.76051 2.59575,-7.56888 3.8565,-10.68527 1.26074,-3.11639 2.29263,-5.79962 2.2931,-5.96273 8.7e-4,-0.30342 -3.85469,-2.6599 -6.51526,-3.98206 -1.13952,-0.56628 -1.54957,-0.65565 -1.7725,-0.38631 -1.49864,1.81052 -1.99991,22.91726 -0.62985,26.52079 0.33474,0.88045 0.4635,0.89787 0.88026,0.11915 z m -16.99033,-7.48042 c 2.12485,-6.66079 3.8517,-9.30577 10.43869,-15.98872 2.85383,-2.8954 4.80306,-5.08764 4.6472,-5.22657 -0.81444,-0.72596 -7.32791,-5.0818 -8.31919,-5.5634 l -1.16764,-0.56728 -4.73901,1.04792 c -7.03824,1.55635 -8.80635,2.03894 -14.33441,3.91246 -2.76992,0.93875 -5.07799,1.70682 -5.12905,1.70682 -0.0992,0 -0.0794,-0.27058 0.78462,-10.69951 0.3106,-3.74903 0.56473,-7.85277 0.56473,-9.11943 v -2.30301 l -1.07864,-0.21903 c -1.65605,-0.33628 -5.46362,-0.28155 -5.8298,0.0838 -0.4632,0.46214 -4.08114,8.69274 -7.05471,16.04904 l -2.54823,6.30406 1.42432,1.27298 c 8.77667,7.84413 15.47397,13.06544 21.90689,17.07892 5.3481,3.33666 9.04197,5.43415 9.29481,5.27788 0.1147,-0.0709 0.62743,-1.442 1.13942,-3.04693 z m -39.55274,-7.08794 c 0.0947,-0.75145 0.23878,-1.94874 0.32012,-2.66064 0.0814,-0.7119 0.34303,-1.98782 0.58151,-2.83537 0.23849,-0.84756 0.35743,-1.6172 0.26431,-1.71032 -0.0931,-0.0931 -0.71561,0.41969 -1.3833,1.13959 -2.02394,2.1822 -6.26256,4.55665 -8.13405,4.55665 -0.25443,0 -0.40881,0.1618 -0.34305,0.35955 0.0658,0.19775 1.22103,0.58699 2.56729,0.86499 1.34625,0.27799 3.14771,0.75392 4.00323,1.05762 0.85553,0.30369 1.64465,0.56163 1.75361,0.57319 0.10896,0.0116 0.2756,-0.59381 0.37033,-1.34526 z m 86.9549,-5.9373 c 2.42743,-1.21913 2.54395,-1.32336 3.33885,-2.98648 0.78575,-1.64399 0.80698,-1.79272 0.46147,-3.23295 l -0.36216,-1.50969 -1.90379,0.18795 c -2.01066,0.1985 -10.04447,1.74824 -10.27909,1.98286 -0.0758,0.0758 -0.21346,1.04084 -0.30599,2.14462 -0.12798,1.52643 -0.074,2.06824 0.22545,2.26324 0.82967,0.54027 5.31614,2.40264 5.80094,2.40801 0.28001,0.003 1.64096,-0.5628 3.02432,-1.25756 z m -105.73869,0.003 c 4.94769,-2.03501 10.75229,-8.28522 14.48192,-15.59366 1.36556,-2.67591 2.66996,-6.39918 3.46228,-9.88276 l 0.46627,-2.05003 5.51136,-2.76131 5.51136,-2.7613 4.60218,0.18328 c 5.03643,0.20058 7.36293,0.5035 9.17221,1.19425 l 1.18271,0.45153 -0.75189,9.84009 c -0.41355,5.41205 -0.71102,9.88778 -0.66105,9.94607 0.05,0.0583 1.22965,-0.35431 2.62153,-0.91688 3.23773,-1.30861 6.91138,-2.36826 10.72785,-3.09439 1.66137,-0.3161 3.50606,-0.70449 4.09931,-0.86309 1.05405,-0.28179 1.07852,-0.31924 1.07348,-1.64309 -0.006,-1.60423 -1.12392,-9.93289 -2.01707,-15.02889 -0.60846,-3.47161 -0.66735,-3.62994 -1.57035,-4.22187 -0.51601,-0.33825 -1.21625,-1.18939 -1.5561,-1.89143 -1.26704,-2.61735 -1.51803,-4.7254 -1.67308,-14.0523 l -0.14656,-8.81538 -0.86635,-0.17327 c -2.7887,-0.55773 -4.17204,0.29628 -8.53349,5.26819 -1.32977,1.51591 -2.6565,2.92533 -2.94827,3.13204 -0.50086,0.35486 -0.52949,0.26644 -0.51241,-1.582 0.01,-1.07682 0.12491,-3.05806 0.25545,-4.40276 0.13053,-1.34471 0.17312,-2.50963 0.0946,-2.58873 -0.17806,-0.17945 -3.29543,3.17355 -5.61589,6.04037 -2.1487,2.65462 -3.87729,5.32225 -5.35235,8.25996 -1.62939,3.2451 -2.12333,4.82668 -2.3161,7.41623 l -0.1713,2.3011 -2.94946,1.46677 c -1.6222,0.80673 -3.62069,1.68357 -4.44111,1.94853 -2.01175,0.64973 -2.25188,0.3785 -2.55632,-2.88738 -0.25353,-2.71974 -0.58523,-4.43308 -1.99142,-10.28632 -0.49127,-2.04491 -1.06066,-4.92785 -1.26531,-6.40652 l -0.3721,-2.6885 4.90027,0.0785 4.90027,0.0785 1.28539,6.11228 c 0.70697,3.36176 1.36223,6.10879 1.45613,6.10452 0.0939,-0.004 1.12415,-1.8164 2.28943,-4.02697 1.16527,-2.21056 2.88489,-5.18226 3.82138,-6.60379 2.02971,-3.08096 5.78268,-7.10462 8.73784,-9.3681 1.24584,-0.95423 2.06014,-1.773 1.95087,-1.96156 -0.10316,-0.17801 -0.53664,-0.84141 -0.96329,-1.47421 -0.42664,-0.6328 -1.18064,-1.95465 -1.67554,-2.93744 -0.4949,-0.9828 -1.15204,-1.92188 -1.46029,-2.08686 -0.82133,-0.43956 -6.84029,-1.69693 -9.15125,-1.91171 -1.83657,-0.17069 -2.04113,-0.13309 -2.61254,0.48025 -0.77207,0.82871 -2.6854,5.73611 -3.35812,8.61304 -0.27744,1.1865 -0.69703,2.37891 -0.93242,2.64981 -0.65221,0.75059 -1.90763,1.02456 -5.6509,1.23319 l -3.42286,0.19078 0.1716,-2.82789 c 0.19827,-3.26751 1.12492,-6.91911 2.86352,-11.28409 4.75379,-11.935 16.17206,-22.16599 29.91142,-26.80121 l 2.80226,-0.94539 0.73482,0.69033 c 0.52629,0.49442 0.71057,0.92942 0.64938,1.53283 -0.0952,0.9384 -0.22262,1.01837 -5.982,3.75314 -1.8193,0.86388 -4.32016,2.22742 -5.55747,3.0301 -2.43722,1.5811 -2.72647,2.22401 -1.20199,2.67166 0.4746,0.13937 4.746,0.25302 9.49201,0.25256 11.86897,-0.001 12.78488,0.22041 17.18696,4.15749 2.11401,1.8907 3.20701,2.67029 9.13179,6.51332 1.8193,1.18006 4.21388,2.89362 5.32128,3.8079 l 2.01346,1.66234 2.58873,-0.18223 c 1.4238,-0.10023 3.49478,-0.25817 4.60218,-0.35098 l 2.01346,-0.16875 3.30782,3.64417 c 1.8193,2.0043 3.58726,3.97908 3.9288,4.3884 0.56018,0.67137 1.05298,0.8099 5.03364,1.41497 4.9233,0.74835 6.56994,0.83765 6.56994,0.35629 0,-0.55598 -3.48017,-9.19721 -4.67713,-11.6133 -1.40276,-2.83146 -2.88323,-5.05567 -5.36076,-8.05383 -1.04584,-1.2656 -2.07254,-2.5203 -2.28156,-2.78822 -0.32822,-0.42069 -0.22038,-0.72225 0.79085,-2.21134 0.64399,-0.94832 1.32425,-1.819 1.5117,-1.93485 0.21411,-0.13233 1.70646,1.19759 4.01456,3.57762 2.02057,2.08354 3.79513,3.78825 3.94346,3.78825 0.41433,0 1.48361,-2.47589 1.48361,-3.43526 0,-0.46903 -0.40082,-2.05604 -0.89071,-3.52668 -1.63723,-4.91489 -1.45405,-11.51915 0.43388,-15.64293 1.55222,-3.3905 4.95434,-6.92805 8.21669,-8.54378 l 1.86331,-0.92284 h 5.47143 c 3.00928,0 6.02152,0.0986 6.69388,0.21913 4.32855,0.7759 -4.04791,-3.20179 -13.79149,-6.5491 -8.88521,-3.05241 -19.25531,-5.51496 -25.97428,-6.168 -8.60683,-0.83653 -22.69821,-0.62461 -28.84341,0.43377 -18.89635,3.2545 -36.06323,12.44111 -46.50518,24.88656 -5.29642,6.31265 -8.17937,11.7515 -11.65173,21.98168 -1.93591,5.70352 -3.40254,9.23442 -5.94436,14.31098 l -1.83678,3.66842 0.71131,4.67304 c 1.22142,8.02421 1.97085,11.25904 5.04765,21.78742 3.56155,12.18715 4.63879,17.22042 4.67865,21.86039 0.0381,4.43464 -0.9838,7.43937 -3.63839,10.69816 -1.32194,1.62281 -4.32075,4.08211 -5.6435,4.62818 -2.79868,1.15538 -3.75813,1.66864 -3.59938,1.92551 0.33808,0.54701 3.37417,0.31381 5.08714,-0.39075 z m 96.00595,-2.695 c 0.16475,-0.59325 0.30027,-1.55269 0.30115,-2.1321 0.002,-1.01271 -0.0846,-1.10294 -2.22758,-2.33234 -4.44629,-2.55083 -11.52232,-6.25002 -11.95541,-6.25002 -0.53398,0 -0.86065,2.14118 -0.7209,4.72528 l 0.0922,1.70511 6.75946,2.66381 c 3.71771,1.4651 6.91518,2.67171 7.10549,2.68136 0.19031,0.01 0.48082,-0.46785 0.64558,-1.0611 z m 7.34966,-5.13533 c 2.5311,-0.53732 4.69916,-0.97695 4.81792,-0.97695 0.3227,0 0.24698,-1.79909 -0.21791,-5.17746 -0.22858,-1.6611 -0.57306,-6.22373 -0.76551,-10.13919 l -0.34991,-7.11901 h -6.40326 -6.40326 l -0.17743,1.07864 c -0.51501,3.13077 -1.71629,7.09948 -3.3018,10.90826 -1.84028,4.42081 -3.04313,7.79341 -2.84525,7.97761 0.0628,0.0585 2.05577,1.15339 4.42878,2.43315 4.95508,2.67226 3.87223,2.57429 11.21763,1.01495 z m -28.56634,-4.87954 c 0.28137,-1.09668 1.17064,-4.82407 1.97616,-8.2831 1.72047,-7.38798 1.77464,-6.9627 -1.28643,-10.10031 -2.71814,-2.78611 -5.43856,-4.10114 -10.66651,-5.15612 -2.0566,-0.41501 -3.90107,-0.7527 -4.09882,-0.75042 -0.53874,0.006 -0.46479,0.93468 0.79491,9.97972 l 1.15445,8.28936 0.96874,0.86394 c 1.72065,1.53447 10.02289,7.35856 10.33931,7.25309 0.16863,-0.0562 0.53682,-0.99949 0.81819,-2.09616 z m 13.05317,-1.93384 c 0.49845,-1.29867 1.58778,-4.04389 2.42073,-6.10049 1.44728,-3.5734 2.58204,-7.87919 2.59012,-9.82803 0.008,-1.94652 -0.76518,-1.82125 11.24237,-1.82125 h 10.88942 l 1.01673,-0.89271 c 0.55921,-0.49099 1.01674,-1.13287 1.01674,-1.4264 0,-0.52252 -3.86732,-10.36353 -4.72269,-12.01764 -0.5392,-1.04269 -0.93213,-1.19563 -3.07179,-1.19563 -1.67155,0 -1.86053,0.0878 -9.08706,4.22161 -4.059,2.32189 -7.89103,4.39768 -8.51563,4.61287 -1.0736,0.36989 -1.23758,0.34354 -3.00245,-0.48234 -1.02675,-0.48047 -1.98455,-0.87359 -2.12843,-0.87359 -0.7506,0 -4.58025,7.18692 -6.13084,11.50547 -0.71139,1.98126 -0.73518,2.18074 -0.29162,2.44491 2.25741,1.34442 2.53572,2.27703 2.39513,8.02604 l -0.10484,4.28676 2.12191,1.11782 c 1.16706,0.6148 2.19707,1.04266 2.28892,0.95081 0.0918,-0.0918 0.57483,-1.22954 1.07328,-2.52821 z m -7.78946,-16.67113 c 0.59642,-1.46336 1.79763,-4.03479 2.66936,-5.7143 l 1.58496,-3.05366 -2.98887,-2.98671 c -4.61097,-4.60764 -8.52001,-10.58783 -10.15547,-15.53621 -0.62715,-1.89759 -0.74155,-2.76372 -0.74155,-5.61458 0,-3.77824 0.30988,-4.7679 2.17527,-6.9472 1.11066,-1.29755 3.65693,-2.66701 6.02237,-3.23901 2.0866,-0.50457 2.1917,-0.73661 0.86291,-1.90517 -1.98975,-1.74982 -4.6518,-3.54185 -5.26139,-3.54185 -0.7275,0 -2.36913,2.17283 -3.39612,4.49503 -1.18124,2.67099 -2.71744,8.39377 -2.90491,10.82162 -0.11681,1.51286 -0.28885,2.22919 -0.53538,2.22919 -0.35773,0 -1.29489,-0.98605 -2.14021,-2.25185 l -0.43146,-0.64607 -2.73254,1.40892 -2.73255,1.40893 -0.39297,1.69394 c -0.26388,1.13754 -0.40098,3.77251 -0.41739,8.02195 -0.0248,6.42232 0.24377,8.91232 1.40273,13.00588 0.47337,1.67198 0.27187,1.5638 4.72891,2.53875 3.29241,0.7202 5.17323,1.29151 6.83446,2.076 1.65635,0.78218 4.52856,3.2052 6.10919,5.15375 0.5537,0.68259 1.08537,1.24157 1.18149,1.24218 0.0961,6.1e-4 0.66274,-1.19618 1.25916,-2.65953 z m 18.76167,-13.0577 7.70516,-4.27241 2.22918,-0.10237 c 1.73447,-0.0796 2.22919,-0.19722 2.22919,-0.52979 0,-0.23508 -0.95105,-2.32472 -2.11344,-4.64363 -2.45829,-4.90418 -2.45537,-4.78247 -0.1949,-8.1171 1.01127,-1.49183 1.33222,-2.17867 1.08203,-2.31557 -0.19563,-0.10705 -2.4914,-0.47748 -5.1017,-0.82319 -2.6103,-0.3457 -5.15256,-0.75306 -5.64947,-0.90524 -0.64856,-0.19862 -1.86585,-1.40841 -4.31455,-4.28795 l -3.41108,-4.01126 -1.29437,-8.2e-4 c -1.89809,-0.001 -8.32406,0.75203 -9.79516,1.14816 -5.69991,1.53483 -8.46419,5.72965 -7.48417,11.35734 0.87601,5.03043 4.47538,11.30364 9.3013,16.2109 3.20171,3.25567 7.28098,5.93881 8.61434,5.66608 0.27087,-0.0554 3.95981,-2.02332 8.19764,-4.37315 z m -51.90754,-16.26745 c 1.22605,-1.34901 2.22919,-2.57235 2.22919,-2.71854 0,-0.36651 -2.93243,-2.11317 -3.54775,-2.11317 -0.82346,0 -2.36203,4.40911 -2.91077,8.34147 l -0.18063,1.29436 1.09039,-1.17569 c 0.59971,-0.64663 2.09352,-2.27942 3.31957,-3.62843 z m 20.13837,-4.90362 c 0.0819,-0.83055 0.0992,-1.56323 0.0384,-1.62818 -0.18838,-0.20122 -1.26462,0.90485 -1.26462,1.29968 0,0.52184 0.62486,1.8386 0.87249,1.8386 0.11268,0 0.27188,-0.67955 0.35377,-1.5101 z m -7.30908,-0.46077 c 3.1199,-1.18547 5.77081,-3.80317 6.98954,-6.902 0.49464,-1.25768 0.6435,-2.24468 0.65736,-4.35842 0.0164,-2.49454 -0.0619,-2.90099 -0.89819,-4.66643 -2.65908,-5.61317 -8.64041,-8.34257 -14.42914,-6.58429 -3.20687,0.97405 -5.59063,2.99987 -7.31561,6.21708 -0.88834,1.6568 -0.92534,1.85809 -0.92534,5.03364 0,2.99149 0.0741,3.46606 0.77544,4.96249 1.44208,3.0772 4.95566,6.00711 8.17516,6.8171 1.60106,0.40281 5.26188,0.13016 6.97078,-0.51917 z m -33.45802,-8.15598 c 0.97408,-2.03254 0.98297,-2.80588 0.0281,-2.43944 -0.58483,0.22442 -1.73781,4.51246 -1.21332,4.51246 0.10549,0 0.63887,-0.93286 1.18527,-2.07302 z m 14.0585,-2.0258 c 0.0706,-0.35595 0.26793,-1.58278 0.43862,-2.72628 0.43912,-2.94175 1.25093,-4.90067 3.05424,-7.36998 0.86201,-1.18035 1.56728,-2.26746 1.56728,-2.4158 0,-0.27251 -6.68033,-0.93496 -9.42844,-0.93496 -1.45076,0 -1.51882,0.0382 -2.69313,1.5101 -1.49072,1.86852 -5.63635,8.15364 -5.87587,8.9083 -0.0969,0.30533 -0.11936,0.61198 -0.0499,0.68144 0.1598,0.1598 11.69,2.92556 12.36104,2.96506 0.29949,0.0176 0.54899,-0.22858 0.62616,-0.61788 z m -42.2023,-1.72582 c 0.15948,-0.35595 1.37011,-3.36535 2.69029,-6.68756 3.29596,-8.29418 7.10837,-15.87321 10.05667,-19.99256 4.59194,-6.41581 9.44315,-11.40155 15.42945,-15.85732 11.47339,-8.53997 25.80118,-13.50755 43.10369,-14.94449 5.04351,-0.41885 17.61756,-0.1696 22.57948,0.44758 18.03858,2.24371 34.18927,7.48585 47.39498,15.38331 1.94171,1.16121 3.60868,2.033 3.70437,1.93731 0.19601,-0.19602 -0.2316,-0.89021 -5.52461,-8.96878 l -3.76914,-5.75273 -4.29179,-2.20686 c -11.3006,-5.810832 -21.78929,-8.795056 -35.28888,-10.040333 -5.40422,-0.498516 -18.70981,-0.18743 -24.22914,0.566477 -12.94733,1.768531 -23.94533,5.11229 -34.65172,10.535286 -9.92945,5.02946 -17.57915,11.30795 -22.99451,18.87273 -8.42977,11.77565 -12.96103,22.82465 -14.81822,36.13266 -0.18394,1.31801 0.13947,1.62347 0.60908,0.57528 z m 73.70013,-1.42294 c 0.48829,-0.66397 0.88779,-1.34644 0.88779,-1.5166 0,-0.32047 -2.90597,-2.23229 -3.09927,-2.03898 -0.17351,0.1735 0.91555,4.76279 1.13023,4.76279 0.1064,0 0.59296,-0.54325 1.08125,-1.20721 z"
       id="path2"
       transform="scale(0.26458333)" />
  </g>
</svg>
