<?xml version="1.0" encoding="UTF-8" standalone="no"?>
<!-- Created with Inkscape (http://www.inkscape.org/) -->

<svg
   version="1.1"
   id="svg185"
   width="511"
   height="511"
   viewBox="0 0 511 511"
   sodipodi:docname="email.svg"
   inkscape:version="1.3.2 (091e20e, 2023-11-25, custom)"
   xmlns:inkscape="http://www.inkscape.org/namespaces/inkscape"
   xmlns:sodipodi="http://sodipodi.sourceforge.net/DTD/sodipodi-0.dtd"
   xmlns="http://www.w3.org/2000/svg"
   xmlns:svg="http://www.w3.org/2000/svg">
  <defs
     id="defs189" />
  <sodipodi:namedview
     id="namedview187"
     pagecolor="#ffffff"
     bordercolor="#000000"
     borderopacity="0.25"
     inkscape:showpageshadow="2"
     inkscape:pageopacity="0.0"
     inkscape:pagecheckerboard="0"
     inkscape:deskcolor="#d1d1d1"
     showgrid="false"
     inkscape:zoom="0.921875"
     inkscape:cx="382.37288"
     inkscape:cy="240.81356"
     inkscape:window-width="1920"
     inkscape:window-height="1130"
     inkscape:window-x="-6"
     inkscape:window-y="-6"
     inkscape:window-maximized="1"
     inkscape:current-layer="g191" />
  <g
     inkscape:groupmode="layer"
     inkscape:label="Image"
     id="g191">
    <path
       style="fill:#fefeff;fill-opacity:1"
       d="m 33.508756,433.9209 c -3.020183,-0.81149 -5.888194,-1.87239 -6.373357,-2.35755 -0.509485,-0.50949 31.456437,-33.33576 75.672071,-77.70876 l 76.55418,-76.82664 23.31918,23.11364 c 12.82554,12.7125 25.19625,24.28329 27.49046,25.71286 2.29421,1.42957 6.97737,3.54452 10.40702,4.69988 4.27608,1.44051 8.8019,2.10782 14.40143,2.12342 4.49113,0.0125 10.14662,-0.51065 12.56775,-1.16259 2.42113,-0.65194 7.1134,-2.55106 10.42728,-4.22027 4.79275,-2.41413 10.89467,-7.86393 29.83054,-26.64254 l 23.80531,-23.60761 76.61935,76.76694 c 46.87149,46.96178 76.26035,77.12534 75.69469,77.69004 -0.50856,0.5077 -3.6067,1.6213 -6.88476,2.47466 -5.30074,1.37992 -29.86019,1.54429 -222,1.48576 C 67.895235,435.40514 38.265549,435.19899 33.508756,433.9209 Z M 1.8303667,404.27795 C 0.08943813,399.28448 0,392.01604 0,255.52795 c 0,-136.48809 0.08943813,-143.75653 1.8303667,-148.75 1.0067017,-2.8875 2.1327974,-5.25 2.5024351,-5.25 0.3696376,0 35.3198772,34.65 77.6671982,77 l 76.99513,77 -76.99513,77 c -42.347321,42.35 -77.2975606,77 -77.6671982,77 -0.3696377,0 -1.4957334,-2.3625 -2.5024351,-5.25 z M 429.00645,332.5344 352.01776,255.54084 429.00005,178.5344 c 42.34026,-42.35355 77.28759,-77.00645 77.66075,-77.00645 0.37316,0 1.50213,2.3625 2.50883,5.25 1.74093,4.99347 1.83037,12.26191 1.83037,148.75 0,136.48809 -0.0894,143.75653 -1.83037,148.75 -1.0067,2.8875 -2.13279,5.25 -2.50243,5.25 -0.36964,0 -35.31698,-34.6471 -77.66075,-76.99355 z M 248,301.11267 C 246.35,300.37732 195.77127,250.42117 135.60282,190.099 71.099705,125.43109 26.573815,80.054776 27.102816,79.526701 c 0.493451,-0.492587 3.579228,-1.59382 6.857283,-2.447184 5.296677,-1.378864 29.956382,-1.55157 221.539901,-1.55157 191.58352,0 216.24322,0.172706 221.5399,1.55157 3.27806,0.853364 6.38058,1.971343 6.8945,2.484398 0.57864,0.57767 -40.73086,42.671965 -108.5,110.561275 -64.71593,64.83068 -110.74933,110.19528 -112.65228,111.0156 -1.76984,0.76294 -5.14484,1.36955 -7.5,1.34802 -2.35517,-0.0215 -5.63212,-0.64079 -7.28212,-1.37614 z"
       id="path420" />
  </g>
</svg>
