<?xml version="1.0" encoding="UTF-8" standalone="no"?>
<svg
   height="533.33301"
   width="533.33301"
   viewBox="-100.7682 -167.947 388.14394 671.78759"
   version="1.1"
   id="svg189"
   sodipodi:docname="instagram.svg"
   inkscape:version="1.3.2 (091e20e, 2023-11-25, custom)"
   xmlns:inkscape="http://www.inkscape.org/namespaces/inkscape"
   xmlns:sodipodi="http://sodipodi.sourceforge.net/DTD/sodipodi-0.dtd"
   xmlns="http://www.w3.org/2000/svg"
   xmlns:svg="http://www.w3.org/2000/svg">
  <defs
     id="defs193" />
  <sodipodi:namedview
     id="namedview191"
     pagecolor="#ffffff"
     bordercolor="#000000"
     borderopacity="0.25"
     inkscape:showpageshadow="2"
     inkscape:pageopacity="0.0"
     inkscape:pagecheckerboard="0"
     inkscape:deskcolor="#d1d1d1"
     showgrid="false"
     inkscape:zoom="0.295"
     inkscape:cx="527.11864"
     inkscape:cy="403.38983"
     inkscape:window-width="1920"
     inkscape:window-height="1130"
     inkscape:window-x="-6"
     inkscape:window-y="-6"
     inkscape:window-maximized="1"
     inkscape:current-layer="svg189" />
  <g
     fill="#100f0d"
     id="g187"
     transform="translate(-242.59003,-167.947)"
     style="fill:#ffffff;fill-opacity:1">
    <path
       d="M 335.895,0 C 244.671,0 233.232,0.387 197.405,2.021 161.653,3.652 137.236,9.331 115.87,17.633 93.782,26.217 75.05,37.703 56.377,56.376 37.703,75.049 26.217,93.783 17.634,115.871 9.33,137.236 3.653,161.653 2.02,197.405 0.386,233.232 0,244.671 0,335.895 c 0,91.222 0.386,102.661 2.02,138.488 1.633,35.752 7.31,60.169 15.614,81.534 8.584,22.088 20.07,40.82 38.743,59.495 18.674,18.673 37.405,30.159 59.493,38.743 21.366,8.302 45.783,13.98 81.535,15.612 35.827,1.634 47.266,2.021 138.49,2.021 91.222,0 102.661,-0.387 138.488,-2.021 35.752,-1.631 60.169,-7.31 81.534,-15.612 22.088,-8.584 40.82,-20.07 59.495,-38.743 18.673,-18.675 30.159,-37.407 38.743,-59.495 8.302,-21.365 13.981,-45.782 15.612,-81.534 1.634,-35.827 2.021,-47.266 2.021,-138.488 0,-91.224 -0.387,-102.663 -2.021,-138.49 -1.631,-35.752 -7.31,-60.169 -15.612,-81.534 C 645.571,93.783 634.085,75.049 615.412,56.376 596.737,37.703 578.005,26.217 555.917,17.633 534.552,9.331 510.135,3.652 474.383,2.021 438.556,0.387 427.117,0 335.895,0 Z m 0,60.521 c 89.686,0 100.31,0.343 135.729,1.959 32.75,1.493 50.535,6.965 62.37,11.565 15.68,6.094 26.869,13.372 38.622,25.126 11.755,11.754 19.033,22.944 25.127,38.622 4.6,11.836 10.072,29.622 11.565,62.371 1.616,35.419 1.959,46.043 1.959,135.73 0,89.687 -0.343,100.311 -1.959,135.73 -1.493,32.75 -6.965,50.535 -11.565,62.37 -6.094,15.68 -13.372,26.869 -25.127,38.622 -11.753,11.755 -22.943,19.033 -38.621,25.127 -11.836,4.6 -29.622,10.072 -62.371,11.565 -35.413,1.616 -46.036,1.959 -135.73,1.959 -89.694,0 -100.315,-0.343 -135.73,-1.96 -32.75,-1.492 -50.535,-6.964 -62.37,-11.564 -15.68,-6.094 -26.869,-13.372 -38.622,-25.127 -11.754,-11.753 -19.033,-22.943 -25.127,-38.621 -4.6,-11.836 -10.071,-29.622 -11.565,-62.371 -1.616,-35.419 -1.959,-46.043 -1.959,-135.73 0,-89.687 0.343,-100.311 1.959,-135.73 1.494,-32.75 6.965,-50.535 11.565,-62.37 6.094,-15.68 13.373,-26.869 25.126,-38.622 11.754,-11.755 22.944,-19.033 38.622,-25.127 11.836,-4.6 29.622,-10.072 62.371,-11.565 35.419,-1.616 46.043,-1.959 135.73,-1.959"
       id="path183"
       style="fill:#ffffff;fill-opacity:1" />
    <path
       d="m 335.895,447.859 c -61.838,0 -111.966,-50.128 -111.966,-111.964 0,-61.838 50.128,-111.966 111.966,-111.966 61.836,0 111.964,50.128 111.964,111.966 0,61.836 -50.128,111.964 -111.964,111.964 z m 0,-284.451 c -95.263,0 -172.487,77.224 -172.487,172.487 0,95.261 77.224,172.485 172.487,172.485 95.261,0 172.485,-77.224 172.485,-172.485 0,-95.263 -77.224,-172.487 -172.485,-172.487 m 219.608,-6.815 c 0,22.262 -18.047,40.307 -40.308,40.307 -22.26,0 -40.307,-18.045 -40.307,-40.307 0,-22.261 18.047,-40.308 40.307,-40.308 22.261,0 40.308,18.047 40.308,40.308"
       id="path185"
       style="fill:#ffffff;fill-opacity:1" />
  </g>
</svg>
