<?xml version="1.0" encoding="UTF-8" standalone="no"?>
<svg
   version="1.1"
   width="256"
   height="256"
   viewBox="0 0 256 256"
   xml:space="preserve"
   id="svg3"
   sodipodi:docname="no pic default.svg"
   inkscape:version="1.3.2 (091e20e, 2023-11-25, custom)"
   xmlns:inkscape="http://www.inkscape.org/namespaces/inkscape"
   xmlns:sodipodi="http://sodipodi.sourceforge.net/DTD/sodipodi-0.dtd"
   xmlns="http://www.w3.org/2000/svg"
   xmlns:svg="http://www.w3.org/2000/svg"><sodipodi:namedview
   id="namedview3"
   pagecolor="#ffffff"
   bordercolor="#000000"
   borderopacity="0.25"
   inkscape:showpageshadow="2"
   inkscape:pageopacity="0.0"
   inkscape:pagecheckerboard="0"
   inkscape:deskcolor="#d1d1d1"
   inkscape:zoom="1.2567718"
   inkscape:cx="81.558162"
   inkscape:cy="140.83702"
   inkscape:window-width="1920"
   inkscape:window-height="1130"
   inkscape:window-x="-6"
   inkscape:window-y="-6"
   inkscape:window-maximized="1"
   inkscape:current-layer="layer4" />

<defs
   id="defs1">

	
	
	
</defs>

<g
   inkscape:groupmode="layer"
   id="layer4"
   inkscape:label="Layer 2"
   style="display:inline"><rect
     style="fill:#1f498a;fill-opacity:1;stroke:#a0a0a0;stroke-width:1.44756;paint-order:stroke fill markers"
     id="rect3"
     width="277.69559"
     height="289.63095"
     x="-6.3655152"
     y="-7.9568939" /></g><g
   inkscape:groupmode="layer"
   id="layer3"
   inkscape:label="Layer 1"
   style="display:inline"><path
     d="m 45,60.71 c -11.479,0 -20.818,-9.339 -20.818,-20.817 0,-11.479 9.339,-20.818 20.818,-20.818 11.479,0 20.817,9.339 20.817,20.818 0,11.478 -9.338,20.817 -20.817,20.817 z"
     style="opacity:1;fill:#a0a0a0;fill-rule:nonzero;stroke:none;stroke-width:1;stroke-linecap:butt;stroke-linejoin:miter;stroke-miterlimit:10;stroke-dasharray:none;fill-opacity:1"
     transform="matrix(2.81,0,0,2.81,1.4065934,1.4065934)"
     stroke-linecap="round"
     id="path2" /><path
     d="M 45,90 C 34.387,90 24.078,86.227 15.972,79.375 15.324,78.827 15.092,77.931 15.393,77.138 20.034,64.919 31.933,56.71 45,56.71 c 13.067,0 24.966,8.209 29.607,20.428 0.301,0.793 0.069,1.689 -0.579,2.237 C 65.922,86.227 55.613,90 45,90 Z"
     style="opacity:1;fill:#a0a0a0;fill-rule:nonzero;stroke:none;stroke-width:1;stroke-linecap:butt;stroke-linejoin:miter;stroke-miterlimit:10;stroke-dasharray:none;fill-opacity:1"
     transform="matrix(2.81,0,0,2.81,1.4065934,1.4065934)"
     stroke-linecap="round"
     id="path3" /></g></svg>
