<?xml version="1.0" encoding="UTF-8" standalone="no"?>
<!-- Created with Inkscape (http://www.inkscape.org/) -->

<svg
   width="4in"
   height="4in"
   viewBox="0 0 101.6 101.6"
   version="1.1"
   id="svg5"
   inkscape:version="1.2.2 (732a01da63, 2022-12-09)"
   sodipodi:docname="tool gear.svg"
   xmlns:inkscape="http://www.inkscape.org/namespaces/inkscape"
   xmlns:sodipodi="http://sodipodi.sourceforge.net/DTD/sodipodi-0.dtd"
   xmlns="http://www.w3.org/2000/svg"
   xmlns:svg="http://www.w3.org/2000/svg">
  <sodipodi:namedview
     id="namedview7"
     pagecolor="#ffffff"
     bordercolor="#000000"
     borderopacity="0.25"
     inkscape:showpageshadow="2"
     inkscape:pageopacity="0.0"
     inkscape:pagecheckerboard="false"
     inkscape:deskcolor="#d1d1d1"
     inkscape:document-units="mm"
     showgrid="false"
     showguides="false"
     inkscape:zoom="0.86915208"
     inkscape:cx="93.76955"
     inkscape:cy="195.01765"
     inkscape:window-width="1920"
     inkscape:window-height="1130"
     inkscape:window-x="-6"
     inkscape:window-y="-6"
     inkscape:window-maximized="1"
     inkscape:current-layer="layer1" />
  <defs
     id="defs2">
    <inkscape:path-effect
       effect="powerclip"
       id="path-effect9832"
       is_visible="true"
       lpeversion="1"
       inverse="true"
       flatten="false"
       hide_clip="false"
       message="Use fill-rule evenodd on &lt;b&gt;fill and stroke&lt;/b&gt; dialog if no flatten result after convert clip to paths." />
    <inkscape:path-effect
       effect="powerclip"
       id="path-effect9804"
       is_visible="true"
       lpeversion="1"
       inverse="true"
       flatten="false"
       hide_clip="false"
       message="Use fill-rule evenodd on &lt;b&gt;fill and stroke&lt;/b&gt; dialog if no flatten result after convert clip to paths." />
    <clipPath
       id="clip0">
      <path
         d="M573.906 399.945 1603.4 17.2523 1986.09 1046.74 956.599 1429.44Z"
         fill-rule="evenodd"
         clip-rule="evenodd"
         id="path9717" />
    </clipPath>
    <clipPath
       id="clip1">
      <path
         d="M573.906 399.945 1603.4 17.2523 1986.09 1046.74 956.599 1429.44Z"
         fill-rule="evenodd"
         clip-rule="evenodd"
         id="path9720" />
    </clipPath>
    <clipPath
       id="clip2">
      <path
         d="M573.906 399.945 1603.4 17.2523 1986.09 1046.74 956.599 1429.44Z"
         fill-rule="evenodd"
         clip-rule="evenodd"
         id="path9723" />
    </clipPath>
    <clipPath
       clipPathUnits="userSpaceOnUse"
       id="clipPath9800">
      <path
         d="m 1016,715 c 0,-145.80299 118.2,-264 264,-264 145.8,0 264,118.19701 264,264 0,145.80299 -118.2,263.99999 -264,263.99999 -145.8,0 -264,-118.197 -264,-263.99999 z"
         fill="#ffffff"
         fill-rule="evenodd"
         id="path9802"
         style="display:none;stroke-width:0.999999" />
      <path
         id="lpe_path-effect9804"
         style="stroke-width:0.999999"
         class="powerclip"
         d="m 987,422 h 586 v 586 H 987 Z m 29,293 c 0,145.80299 118.2,263.99999 264,263.99999 145.8,0 264,-118.197 264,-263.99999 0,-145.80299 -118.2,-264 -264,-264 -145.8,0 -264,118.19701 -264,264 z" />
    </clipPath>
    <clipPath
       clipPathUnits="userSpaceOnUse"
       id="clipPath9828">
      <path
         d="m 968,715 c 0,-172.313 139.69,-312 312,-312 172.31,0 312,139.687 312,312 0,172.313 -139.69,312 -312,312 -172.31,0 -312,-139.687 -312,-312 z"
         fill="#ffffff"
         fill-rule="evenodd"
         id="path9830"
         style="display:none;stroke-width:0.999999" />
      <path
         id="lpe_path-effect9832"
         style="stroke-width:0.999999"
         class="powerclip"
         d="M 869.833,312.833 H 1691.36 V 1133.17 H 869.833 Z M 968,715 c 0,172.313 139.69,312 312,312 172.31,0 312,-139.687 312,-312 0,-172.313 -139.69,-312 -312,-312 -172.31,0 -312,139.687 -312,312 z" />
    </clipPath>
  </defs>
  <g
     inkscape:label="Layer 1"
     inkscape:groupmode="layer"
     id="layer1">
    <g
       transform="matrix(0.12519608,0,0,0.12537993,-109.52566,-39.849881)"
       id="g9762"
       style="display:inline">
      <g
         id="g9826"
         clip-path="url(#clipPath9828)"
         inkscape:path-effect="#path-effect9832"
         style="display:inline">
        <g
           id="g9734"
           style="display:inline">
          <g
             id="g9732">
            <g
               id="g9730">
              <path
                 d="m 1280,866 c -78.65,0 -143,-64.35 -143,-143 0,-78.65 64.35,-143 143,-143 78.65,0 143,64.35 143,143 0,78.65 -64.35,143 -143,143 z m 321.75,-232.375 c -7.15,-26.217 -17.87,-51.242 -30.98,-73.883 l 29.79,-89.375 -67.93,-67.925 -89.37,29.791 C 1419.43,419.125 1394.4,408.4 1368.18,401.25 l -40.51,-83.417 h -95.34 l -41.71,83.417 c -26.21,7.15 -51.24,17.875 -73.88,30.983 l -89.37,-29.791 -67.928,67.925 29.791,89.375 C 976.125,583.575 965.4,608.6 958.25,634.817 l -83.417,40.516 v 95.334 l 83.417,41.708 c 7.15,26.217 17.875,51.242 30.983,73.883 l -29.791,89.375 67.928,67.927 89.37,-29.79 c 23.83,13.11 48.86,23.83 75.08,30.98 l 41.71,83.42 h 95.33 l 41.71,-83.42 c 26.21,-7.15 51.24,-17.87 73.88,-30.98 l 89.38,29.79 67.92,-67.927 -29.79,-89.375 c 13.11,-23.833 23.83,-48.858 30.98,-75.075 l 83.42,-41.708 v -95.333 z"
                 fill="#1f498a"
                 id="path9728"
                 inkscape:original-d="m 1280,866 c -78.65,0 -143,-64.35 -143,-143 0,-78.65 64.35,-143 143,-143 78.65,0 143,64.35 143,143 0,78.65 -64.35,143 -143,143 z m 321.75,-232.375 c -7.15,-26.217 -17.87,-51.242 -30.98,-73.883 l 29.79,-89.375 -67.93,-67.925 -89.37,29.791 C 1419.43,419.125 1394.4,408.4 1368.18,401.25 l -40.51,-83.417 h -95.34 l -41.71,83.417 c -26.21,7.15 -51.24,17.875 -73.88,30.983 l -89.37,-29.791 -67.928,67.925 29.791,89.375 C 976.125,583.575 965.4,608.6 958.25,634.817 l -83.417,40.516 v 95.334 l 83.417,41.708 c 7.15,26.217 17.875,51.242 30.983,73.883 l -29.791,89.375 67.928,67.927 89.37,-29.79 c 23.83,13.11 48.86,23.83 75.08,30.98 l 41.71,83.42 h 95.33 l 41.71,-83.42 c 26.21,-7.15 51.24,-17.87 73.88,-30.98 l 89.38,29.79 67.92,-67.927 -29.79,-89.375 c 13.11,-23.833 23.83,-48.858 30.98,-75.075 l 83.42,-41.708 v -95.333 z" />
            </g>
          </g>
        </g>
        <g
           clip-path="url(#clip0)"
           id="g9742"
           style="display:inline">
          <g
             clip-path="url(#clip1)"
             id="g9740">
            <g
               clip-path="url(#clip2)"
               id="g9738">
              <path
                 d="m 1327.83,852.031 c -70.77,26.31 -150.21,-10.073 -176.52,-80.85 -26.31,-70.778 10.07,-150.213 80.85,-176.523 70.78,-26.31 150.21,10.072 176.52,80.85 26.31,70.777 -10.07,150.213 -80.85,176.523 z m 211.82,-316.748 c -15.21,-21.201 -33.23,-40.133 -52.6,-56.123 l -3.09,-90.395 -83.85,-38.404 -70.46,56.707 c -25.84,-3.823 -51.94,-5.103 -77.93,-2.767 l -64.36,-61.514 -85.79,31.891 -9.63,89.02 c -21.2,15.204 -40.14,33.227 -56.13,52.597 l -90.391,3.088 -38.404,83.849 56.708,70.463 c -3.824,25.833 -5.104,51.94 -2.768,77.925 l -61.514,64.366 31.891,85.791 89.018,9.629 c 15.21,21.2 33.23,40.133 52.6,56.123 l 3.09,90.391 83.85,38.41 70.46,-56.71 c 25.83,3.82 51.94,5.1 77.92,2.77 l 65.44,61.11 85.79,-31.89 9.63,-89.018 c 21.2,-15.204 40.14,-33.227 56.13,-52.597 l 90.39,-3.089 38.4,-83.848 -56.7,-70.463 c 3.82,-25.833 5.1,-51.941 2.76,-77.925 l 61.12,-65.438 -31.89,-85.791 z"
                 fill="#1f498a"
                 id="path9736"
                 inkscape:original-d="m 1327.83,852.031 c -70.77,26.31 -150.21,-10.073 -176.52,-80.85 -26.31,-70.778 10.07,-150.213 80.85,-176.523 70.78,-26.31 150.21,10.072 176.52,80.85 26.31,70.777 -10.07,150.213 -80.85,176.523 z m 211.82,-316.748 c -15.21,-21.201 -33.23,-40.133 -52.6,-56.123 l -3.09,-90.395 -83.85,-38.404 -70.46,56.707 c -25.84,-3.823 -51.94,-5.103 -77.93,-2.767 l -64.36,-61.514 -85.79,31.891 -9.63,89.02 c -21.2,15.204 -40.14,33.227 -56.13,52.597 l -90.391,3.088 -38.404,83.849 56.708,70.463 c -3.824,25.833 -5.104,51.94 -2.768,77.925 l -61.514,64.366 31.891,85.791 89.018,9.629 c 15.21,21.2 33.23,40.133 52.6,56.123 l 3.09,90.391 83.85,38.41 70.46,-56.71 c 25.83,3.82 51.94,5.1 77.92,2.77 l 65.44,61.11 85.79,-31.89 9.63,-89.018 c 21.2,-15.204 40.14,-33.227 56.13,-52.597 l 90.39,-3.089 38.4,-83.848 -56.7,-70.463 c 3.82,-25.833 5.1,-51.941 2.76,-77.925 l 61.12,-65.438 -31.89,-85.791 z" />
            </g>
          </g>
        </g>
      </g>
      <path
         d="m 992,715 c 0,-159.058 128.94,-288 288,-288 159.06,0 288,128.942 288,288 0,159.058 -128.94,288 -288,288 -159.06,0 -288,-128.942 -288,-288 z"
         fill="#a0a0a0"
         fill-rule="evenodd"
         id="path9746"
         clip-path="url(#clipPath9800)"
         inkscape:path-effect="#path-effect9804"
         inkscape:original-d="m 992,715 c 0,-159.058 128.94,-288 288,-288 159.06,0 288,128.942 288,288 0,159.058 -128.94,288 -288,288 -159.06,0 -288,-128.942 -288,-288 z"
         sodipodi:insensitive="true"
         style="display:inline" />
      <g
         id="g9760"
         style="display:inline">
        <g
           id="g9758"
           style="display:inline">
          <g
             id="g9756"
             sodipodi:insensitive="true"
             style="display:inline">
            <path
               d="m 1154,859.2 c -2.8,2.8 -6.4,3.6 -10,2 -3.6,-1.6 -5.6,-4.8 -5.6,-8.4 0,-3.6 2.4,-7.2 5.6,-8.4 3.6,-1.6 7.2,-0.8 10,2 3.6,3.2 3.6,9.2 0,12.8 z m 282.4,-263.6 -32.4,32.4 -25.6,-6.8 -6.4,-25.2 32.4,-32.4 c -19.2,-7.2 -40.8,-2.8 -56,10.8 -15.2,14 -21.2,34.8 -16,54.8 l -204,204 c -7.2,6.8 -10,17.2 -7.6,26.8 2.4,9.6 10,17.2 19.6,19.6 9.6,2.4 19.6,-0.4 26.8,-7.6 l 204,-204 c 20,5.2 40.8,-0.8 54.8,-16 13.6,-15.2 18,-37.2 10.4,-56.4 z"
               fill="#1f498a"
               id="path9750" />
            <path
               d="M 1434.8,833.2 1331.6,730 l -41.6,41.6 100,100 3.6,3.6 0.4,-0.4 c 11.6,8.4 27.6,6.8 37.6,-3.2 10,-10.4 11.2,-26.4 3.2,-38.4 z"
               fill="#1f498a"
               id="path9752" />
            <path
               d="m 1178.4,607.2 0.4,-0.4 -10.4,-19.2 -34.4,-27.6 -14,14 27.6,34.4 19.2,10.4 0.4,-0.4 76.4,76.4 11.2,-11.2 z"
               fill="#1f498a"
               id="path9754" />
          </g>
        </g>
      </g>
    </g>
  </g>
</svg>
